# xmcd
#
# Track frame offsets:
#	150
#	26866
#	40143
#	50888
#	66827
#	71480
#	92164
#	115312
#	134251
#	155450
#	176921
#	209344
#
# Disc length: 3043 seconds
#
# Revision: 0
# Processed by: cddbd v1.5PL3 Copyright (c) Steve Scherf et al.
# Submitted via: dBpowerAMP V4.0
#
DISCID=b50be10c
DTITLE=Carmen McRae - The Gold Collection
DYEAR=1900
DGENRE=R&B
TTITLE0=Body and Soul
TTITLE1=This is the End of a Beautiful Friendship
TTITLE2=Bye Bye Blackbird
TTITLE3=Black Magic
TTITLE4=Superwoman
TTITLE5=I Concentrate on You
TTITLE6=New York State of Mind
TTITLE7=Underneath the Apple Tree
TTITLE8=Send in the Clowns
TTITLE9=How Long has this been Going On?
TTITLE10=My Foolish Heart
TTITLE11=Secret Love
EXTD=
EXTT0=
EXTT1=
EXTT2=
EXTT3=
EXTT4=
EXTT5=
EXTT6=
EXTT7=
EXTT8=
EXTT9=
EXTT10=
EXTT11=
PLAYORDER=
